<svg width="86" height="24" viewBox="0 0 86 24" fill="none" xmlns="http://www.w3.org/2000/svg">
<path d="M2.41633 21.0643C2.12868 21.0643 1.98485 20.9205 1.98485 20.6328V1.3597C1.98485 1.07204 2.12868 0.928215 2.41633 0.928215H16.7417C17.0294 0.928215 17.1732 1.07204 17.1732 1.3597V20.6328C17.1732 20.9205 17.0294 21.0643 16.7417 21.0643H13.4912C13.2035 21.0643 13.0597 20.9205 13.0597 20.6328V4.58148H6.09837V20.6328C6.09837 20.9205 5.95454 21.0643 5.66688 21.0643H2.41633ZM32.7936 19.2808C31.3936 20.7 29.6389 21.4095 27.5294 21.4095C25.4199 21.4095 23.6556 20.7 22.2365 19.2808C20.8365 17.8617 20.1366 16.107 20.1366 14.0167C20.1366 11.9264 20.8365 10.1717 22.2365 8.75253C23.6556 7.33342 25.4199 6.62386 27.5294 6.62386C29.6389 6.62386 31.3936 7.33342 32.7936 8.75253C34.1935 10.1717 34.8935 11.9264 34.8935 14.0167C34.8935 16.107 34.1935 17.8617 32.7936 19.2808ZM27.5294 17.7563C28.5458 17.7563 29.3896 17.4207 30.0608 16.7494C30.732 16.0591 31.0676 15.1481 31.0676 14.0167C31.0676 12.8852 30.732 11.9839 30.0608 11.3127C29.3896 10.6223 28.5458 10.2771 27.5294 10.2771C26.4938 10.2771 25.6404 10.6223 24.9692 11.3127C24.298 11.9839 23.9624 12.8852 23.9624 14.0167C23.9624 15.1481 24.298 16.0591 24.9692 16.7494C25.6404 17.4207 26.4938 17.7563 27.5294 17.7563Z" fill="#428DFC"/>
<path d="M65.3809 19.2808C63.981 20.7 62.2263 21.4095 60.1168 21.4095C58.0073 21.4095 56.243 20.7 54.8239 19.2808C53.4239 17.8617 52.724 16.107 52.724 14.0167C52.724 11.9264 53.4239 10.1717 54.8239 8.75253C56.243 7.33342 58.0073 6.62386 60.1168 6.62386C62.2263 6.62386 63.981 7.33342 65.3809 8.75253C66.7809 10.1717 67.4808 11.9264 67.4808 14.0167C67.4808 16.107 66.7809 17.8617 65.3809 19.2808ZM60.1168 17.7563C61.1332 17.7563 61.977 17.4207 62.6482 16.7494C63.3194 16.0591 63.655 15.1481 63.655 14.0167C63.655 12.8852 63.3194 11.9839 62.6482 11.3127C61.977 10.6223 61.1332 10.2771 60.1168 10.2771C59.0812 10.2771 58.2278 10.6223 57.5566 11.3127C56.8854 11.9839 56.5498 12.8852 56.5498 14.0167C56.5498 15.1481 56.8854 16.0591 57.5566 16.7494C58.2278 17.4207 59.0812 17.7563 60.1168 17.7563ZM84.2529 20.5465C84.368 20.7 84.3968 20.8246 84.3392 20.9205C84.3009 21.0164 84.1858 21.0643 83.994 21.0643H80.312C80.1011 21.0643 79.9285 20.9876 79.7942 20.8342L75.5081 15.6563L74.1561 17.0659V20.6328C74.1561 20.9205 74.0123 21.0643 73.7246 21.0643H70.5891C70.3015 21.0643 70.1576 20.9205 70.1576 20.6328V7.40054C70.1576 7.11288 70.3015 6.96905 70.5891 6.96905H73.7246C74.0123 6.96905 74.1561 7.11288 74.1561 7.40054V12.2044L78.7874 7.19918C78.9217 7.04576 79.1038 6.96905 79.334 6.96905H83.0735C83.2653 6.96905 83.3804 7.01699 83.4187 7.11288C83.4762 7.20877 83.4379 7.33342 83.3037 7.48684L78.0107 13.0387L84.2529 20.5465Z" fill="#428DFC"/>
<path d="M51.5087 6.8634C51.639 7.17419 51.5854 7.4395 51.3476 7.65933L45.676 13.265V21.7018C45.676 22.0202 45.5265 22.2438 45.2274 22.3727C45.1277 22.4106 45.0318 22.4295 44.9398 22.4295C44.7327 22.4295 44.5601 22.3575 44.4221 22.2135L41.477 19.3027C41.3313 19.1586 41.2584 18.9881 41.2584 18.791V13.265L35.5868 7.65933C35.3491 7.4395 35.2954 7.17419 35.4258 6.8634C35.5562 6.56777 35.7824 6.41995 36.1045 6.41995H50.8299C51.152 6.41995 51.3783 6.56777 51.5087 6.8634Z" fill="#428DFC"/>
</svg>
